<svg version="1.2" xmlns="http://www.w3.org/2000/svg" viewBox="0 0 411 137" width="411" height="137">
	<title>Library-svg</title>
	<style>
		.s0 { fill: #000000 } 
		.s1 { fill: #ef9606 } 
		.s2 { fill: #ffb83d } 
	</style>
	<path id="Layer" fill-rule="evenodd" class="s0" d="m140.8 51h17v10h-30v-53.4h13zm29.8-36.7q-3.5 0-5.7-2-2.1-2.1-2.1-5 0-3.1 2.1-5 2.2-2.1 5.7-2.1 3.3 0 5.4 2.1 2.2 1.9 2.2 5 0 2.9-2.2 5-2.1 2-5.4 2zm6.4 4.4v42.4h-13v-42.4zm22.4 6q1.9-3 5.3-4.8 3.4-1.8 7.8-1.8 5.2 0 9.5 2.6 4.3 2.7 6.7 7.6 2.5 5 2.5 11.5 0 6.5-2.5 11.6-2.4 4.9-6.7 7.6-4.3 2.7-9.5 2.7-4.5 0-7.8-1.8-3.4-1.8-5.3-4.7v5.9h-13v-56.3h13zm18.6 15.2q0-4.9-2.8-7.6-2.6-2.8-6.6-2.8-3.9 0-6.6 2.8-2.6 2.8-2.6 7.6 0 4.9 2.6 7.7 2.7 2.8 6.6 2.8 3.9 0 6.6-2.8 2.8-2.9 2.8-7.7zm33-14.1q2.3-3.5 5.7-5.5 3.4-2 7.6-2v13.7h-3.6q-4.8 0-7.3 2.2-2.4 2-2.4 7.3v19.6h-13v-42.4h13zm16.9 14.1q0-6.5 2.5-11.5 2.5-4.9 6.7-7.6 4.3-2.6 9.5-2.6 4.5 0 7.9 1.8 3.4 1.8 5.2 4.8v-6h13v42.4h-13v-6q-1.9 2.9-5.3 4.8-3.4 1.8-7.8 1.8-5.2 0-9.5-2.7-4.2-2.7-6.7-7.7-2.5-5-2.5-11.5zm31.8 0.1q0-4.9-2.7-7.7-2.7-2.8-6.6-2.8-3.8 0-6.6 2.8-2.6 2.7-2.6 7.6 0 4.9 2.6 7.7 2.8 2.9 6.6 2.9 3.9 0 6.6-2.9 2.7-2.8 2.7-7.6zm35.4-14.2q2.3-3.5 5.7-5.4 3.4-2.1 7.6-2.1v13.8h-3.6q-4.8 0-7.3 2.1-2.4 2-2.4 7.3v19.7h-13v-42.4h13zm62.8-7.1l-26.6 62.5h-14l9.8-21.5-17.3-41h14.5l9.8 26.5 9.8-26.5z"/>
	<path id="Layer" fill-rule="evenodd" class="s0" d="m143.7 90v2.4h-12.3v10.4h10.4v2.3h-10.4v12.9h-2.8v-28zm14.2 28.3q-3.1 0-5.6-1.3-2.4-1.4-3.9-4-1.4-2.5-1.4-5.9 0-3.4 1.5-5.9 1.4-2.6 3.9-4 2.5-1.4 5.5-1.4 3.1 0 5.6 1.4 2.5 1.4 3.9 4 1.5 2.5 1.5 5.9 0 3.3-1.5 5.9-1.4 2.6-3.9 4-2.6 1.3-5.6 1.3zm0-2.4q2.1 0 4-1 1.8-1 2.9-2.9 1.2-2 1.2-4.9 0-2.9-1.1-4.9-1.2-2-3-2.9-1.8-1-4-1-2.2 0-4 1-1.8 0.9-3 2.9-1 2-1 4.9 0 2.9 1 4.9 1.2 1.9 3 2.9 1.8 1 4 1zm35-19.7v21.8h-2.8v-3.8q-1 2-3 3.1-2 1.1-4.5 1.1-3.9 0-6.4-2.4-2.4-2.5-2.4-7.1v-12.7h2.7v12.4q0 3.6 1.8 5.4 1.8 1.9 4.9 1.9 3.1 0 5-2 1.9-2 1.9-5.9v-11.8zm16.6-0.4q3.9 0 6.4 2.4 2.5 2.4 2.5 7v12.8h-2.8v-12.5q0-3.5-1.8-5.4-1.7-1.9-4.8-1.9-3.2 0-5 2-1.9 2-1.9 5.9v11.9h-2.8v-21.8h2.8v3.7q1-2 3-3.1 1.9-1 4.4-1zm13.8 11.2q0-3.3 1.4-5.8 1.3-2.6 3.7-4 2.4-1.4 5.4-1.4 2.9 0 5.2 1.4 2.3 1.4 3.4 3.7v-12.5h2.8v29.6h-2.8v-4.9q-1 2.3-3.3 3.8-2.3 1.4-5.4 1.4-3 0-5.4-1.4-2.3-1.4-3.7-3.9-1.3-2.6-1.3-6zm19.1 0.1q0-2.7-1.1-4.7-1.1-2-3-3-1.8-1.1-4-1.1-2.4 0-4.2 1-1.8 1.1-2.9 3.1-1.1 1.9-1.1 4.6 0 2.7 1.1 4.8 1.1 2 2.9 3 1.8 1.1 4.2 1.1 2.2 0 4-1.1 1.9-1.1 3-3.1 1.1-2 1.1-4.6zm28.9-1.1q0 1.4 0 2.2h-18.2q0.2 2.4 1.2 4.2 1.1 1.8 2.9 2.7 1.7 0.9 3.8 0.9 2.7 0 4.6-1.4 1.9-1.3 2.5-3.5h2.9q-0.8 3.2-3.4 5.2-2.6 2-6.6 2-3.1 0-5.5-1.3-2.4-1.4-3.8-4-1.4-2.5-1.4-5.9 0-3.4 1.4-6 1.3-2.5 3.8-3.9 2.4-1.4 5.5-1.4 3.1 0 5.5 1.4 2.3 1.4 3.6 3.7 1.2 2.3 1.2 5.1zm-2.8-0.1q0-2.5-1-4.2-1-1.7-2.8-2.6-1.7-0.9-3.8-0.9-3.1 0-5.3 2-2.2 2-2.5 5.7zm6.7 1.1q0-3.3 1.4-5.8 1.3-2.6 3.7-4 2.4-1.4 5.4-1.4 2.9 0 5.2 1.4 2.3 1.4 3.4 3.7v-12.5h2.8v29.6h-2.8v-4.9q-1 2.3-3.3 3.8-2.3 1.4-5.3 1.4-3 0-5.4-1.4-2.4-1.4-3.8-3.9-1.3-2.6-1.3-6zm19.1 0.1q0-2.7-1.1-4.7-1.1-2-2.9-3-1.9-1.1-4.1-1.1-2.3 0-4.2 1-1.8 1.1-2.9 3.1-1 1.9-1 4.6 0 2.7 1 4.8 1.1 2 2.9 3 1.9 1.1 4.2 1.1 2.2 0 4.1-1.1 1.8-1.1 2.9-3.1 1.1-2 1.1-4.6zm18.2-15.3v-2.5h6.8v28.7h-2.8v-26.2zm16.7 18.6q0.5 2.6 2 4 1.6 1.4 4.3 1.4 3.8 0 5.6-3 1.8-2.9 1.6-9.7-0.7 2.2-2.9 3.5-2.1 1.2-4.9 1.2-4.2 0-6.7-2.5-2.5-2.5-2.5-7 0-2.7 1-4.9 1-2.1 3.2-3.4 2.1-1.2 5.2-1.2 5.6 0 7.9 3.7 2.2 3.7 2.2 10.6 0 7.5-2.2 11.3-2.2 3.7-7.6 3.7-4 0-6.2-2.1-2.2-2.2-2.6-5.6zm6.2-5q1.9 0 3.4-0.8 1.6-0.8 2.6-2.3 0.9-1.5 0.9-3.6 0-3.3-1.8-5.4-1.9-2.1-5.4-2.1-3 0-4.9 1.9-1.9 1.9-1.9 5.1 0 3.4 1.9 5.3 1.8 1.9 5.2 1.9zm18.8 5q0.5 2.6 2 4 1.6 1.4 4.3 1.4 3.8 0 5.6-3 1.8-2.9 1.6-9.7-0.7 2.2-2.9 3.5-2.1 1.2-4.9 1.2-4.2 0-6.7-2.5-2.5-2.5-2.5-7 0-2.7 1-4.9 1-2.1 3.2-3.4 2.1-1.2 5.2-1.2 5.6 0 7.9 3.7 2.2 3.7 2.2 10.6 0 7.5-2.2 11.3-2.2 3.7-7.6 3.7-4 0-6.2-2.1-2.2-2.2-2.6-5.6zm6.2-5q1.9 0 3.4-0.8 1.6-0.8 2.6-2.3 0.9-1.5 0.9-3.6 0-3.3-1.8-5.4-1.9-2.1-5.4-2.1-3 0-4.9 1.9-1.9 1.9-1.9 5.1 0 3.4 1.9 5.3 1.8 1.9 5.2 1.9zm33.2-13.7h-14.7v10.3q1-1.4 3-2.3 1.9-0.9 4.1-0.9 3.3 0 5.4 1.3 2.1 1.3 3 3.5 0.9 2.1 0.9 4.6 0 2.8-1.1 5-1 2.3-3.2 3.6-2.2 1.3-5.4 1.3-4.1 0-6.7-2.1-2.6-2.2-3.1-5.8h2.7q0.6 2.6 2.4 4.1 1.9 1.4 4.7 1.4 3.5 0 5.2-2 1.8-2.1 1.8-5.5 0-3.3-1.8-5.2-1.8-1.8-5.1-1.8-2.4 0-4.1 1-1.8 1.1-2.6 3h-2.7v-15.9h17.3z"/>
	<path id="Layer" fill-rule="evenodd" class="s1" d="m55.1 86.3q-1.4 0-2.7-0.8-0.2-0.1-0.5-0.3l-48.2-29.4c-1.7-1-2.9-2.6-3.4-4.5-0.3-1-0.3-1.6-0.3-2.1 0-4.3 1.9-7.3 6.3-10l46-28c0.4-0.3 0.9-0.3 1.3 0l45.5 27.7c1.2 0.7 1.9 2 1.9 3.4 0 1.4-0.7 2.7-1.9 3.4l-42.3 25.8c-3.7 2.2-5 4.3-5 7.7 0 1.6 0.6 3 1.5 3.8q0.1 0 0.1 0.1 0.1 0.1 0.3 0.1c1 0.6 2.1 0.6 3.4-0.2l42.7-26-3.5-2.4c-0.5-0.4-0.7-1.2-0.3-1.8 0.4-0.6 1.1-0.8 1.7-0.4l5.2 3.5c0.3 0.3 0.6 0.7 0.5 1.2 0 0.4-0.2 0.9-0.6 1.1l-44.5 27.1q-1.6 1-3.2 1zm-52.6-36.9c0 0.1 0 0.6 0.2 1.2 0.3 1.2 1.1 2.3 2.3 3l44.4 27q-0.1-0.7-0.1-1.4c0-4.3 1.9-7.3 6.3-10l42.3-25.8c0.5-0.3 0.6-0.9 0.6-1.1 0-0.2-0.1-0.8-0.6-1.1l-45-27.4-45.3 27.7c-3.7 2.2-5.1 4.3-5.1 7.7q0 0.1 0 0.2zm0 0.1q0 0.1-0.1 0.2 0.1-0.1 0.1-0.2z"/>
	<path id="Layer" class="s1" d="m75.9 102.8c-0.4 0-0.9-0.2-1.1-0.6-0.3-0.7-0.1-1.5 0.5-1.8l24.5-15-3.5-2.4c-0.5-0.4-0.7-1.2-0.3-1.8 0.4-0.6 1.1-0.8 1.7-0.4l5.2 3.6c0.3 0.2 0.6 0.7 0.5 1.1 0 0.5-0.2 0.9-0.6 1.1l-26.3 16q-0.3 0.2-0.6 0.2z"/>
	<path id="Layer" fill-rule="evenodd" class="s1" d="m52.6 113.8q-0.3 0-0.6-0.1l-48.3-29.4c-1.7-1.1-2.9-2.7-3.4-4.6-0.3-0.9-0.3-1.6-0.3-2 0-4.4 1.9-7.4 6.3-10l2.1-1.5c0.6-0.4 1.3-0.2 1.7 0.4 0.4 0.6 0.2 1.4-0.4 1.8l-2.1 1.5q0 0 0 0c-3.7 2.3-5.1 4.4-5.1 7.8q0 0.1 0 0.1c0 0.2 0 0.6 0.2 1.2 0.3 1.2 1.1 2.3 2.3 3l48.3 29.4c0.5 0.4 0.7 1.2 0.4 1.8-0.2 0.4-0.6 0.6-1.1 0.6zm-50.1-35.9q0 0.1-0.1 0.2 0.1-0.1 0.1-0.2z"/>
	<path id="Layer" class="s1" d="m67.4 118.1q-0.3 0-0.6-0.1c-0.4-0.3-0.7-0.7-0.7-1.2v-7.8l-7.8 4.7c-2 1.3-4.1 1.3-5.9 0.3-1.9-1.2-3.1-3.6-3.1-6.3 0-4.4 1.9-7.4 6.3-10.1l42.3-25.7c0.5-0.4 0.6-0.9 0.6-1.1 0-0.3-0.1-0.8-0.6-1.2-0.6-0.3-0.8-1.1-0.5-1.8 0.3-0.6 1.1-0.8 1.7-0.5 1.2 0.8 1.9 2 1.9 3.5 0 1.4-0.7 2.6-1.9 3.4l-42.3 25.7c-3.7 2.3-5 4.4-5 7.8 0 1.7 0.7 3.3 1.9 4 1 0.6 2.1 0.5 3.4-0.2l9.7-5.9c0.4-0.2 0.8-0.2 1.2 0 0.4 0.3 0.6 0.7 0.6 1.2v7.7l6-3.8v-9.2c0-1.8-0.9-3.5-2.4-4.4-0.6-0.4-0.8-1.2-0.5-1.8 0.4-0.6 1.1-0.9 1.7-0.5 2.3 1.4 3.7 3.9 3.7 6.7v10c0 0.4-0.2 0.9-0.6 1.1l-8.5 5.4q-0.3 0.1-0.6 0.1z"/>
	<path id="Layer" class="s2" d="m45.2 64q-0.3 0-0.6-0.2l-38.3-22.3c-0.6-0.4-0.8-1.2-0.4-1.8 0.3-0.6 1-0.9 1.6-0.5l38.3 22.4c0.6 0.3 0.8 1.1 0.5 1.7-0.3 0.5-0.7 0.7-1.1 0.7z"/>
</svg>