<svg version="1.2" xmlns="http://www.w3.org/2000/svg" viewBox="0 0 1023 814" width="1022" height="813">
	<title>Undraw_Books-svg</title>
	<defs>
		<linearGradient id="g1" x1="546.6" y1="501.9" x2="546.6" y2="0" gradientUnits="userSpaceOnUse">
			<stop offset="0" stop-color="#808080" stop-opacity=".3"/>
			<stop offset=".5" stop-color="#808080" stop-opacity=".1"/>
			<stop offset="1" stop-color="#808080" stop-opacity=".1"/>
		</linearGradient>
	</defs>
	<style>
		.s0 { opacity: .1;fill: #ffb83d } 
		.s1 { fill: #ffb83d } 
		.s2 { fill: #444053 } 
		.s3 { fill: #d5d6db } 
		.s4 { opacity: .1;fill: #000000 } 
		.s5 { opacity: .3;fill: #ffffff } 
		.s6 { fill: #ef9606 } 
		.s7 { opacity: .5;fill: #ffffff } 
		.s8 { opacity: .1;fill: #7342d6 } 
		.s9 { fill: url(#g1) } 
		.s10 { fill: #be6f72 } 
		.s11 { fill: #3e373a } 
		.s12 { fill: #4b4b5b } 
		.s13 { opacity: 0;fill: #000000 } 
		.s14 { fill: #e7c7ca } 
		.s15 { fill: #c3c7d9 } 
		.s16 { fill: #000000 } 
		.s17 { opacity: .1;fill: none;stroke: #000000 } 
		.s18 { fill: #ffd037 } 
		.s19 { fill: #65617d } 
		.s20 { fill: #9d9cb5 } 
	</style>
	<path id="Layer" class="s0" d="m761.6 86c36.8-37.5 106.1-40.4 156-17.7 47.7 21.6 78.5 67.3 76.2 113-3.4 66.5-67.5 117.5-105.8 175.7-17.8 27.1-30.4 59.7-18.1 88.9 22.3 53.1 110.4 65.4 142.3 114.9 19 29.5 12 69.3-16.4 92.9-22.3 18.5-54.1 26.2-84.9 31-55.4 8.7-112 10.4-168.3 12.1-152.3 4.5-304.9 9-456.7-1.4-68.6-4.7-138.9-13-198.6-41.9-29.4-14.3-56.5-34.5-67.9-61.5-11.5-27.2-5.4-57.8 7.7-84.5 13.1-26.6 32.9-50.6 49.9-75.6 36.2-53.5 59.9-121 26.4-175.7-9.6-15.8-23.5-29.5-31.3-46-11.3-23.6-8.9-50.2-4.8-75.5 5.5-33.5 15.7-69.7 47.2-90.7 32.7-21.8 79.2-20.7 119.8-12.9 63.2 12.1 121.5 37.5 180.3 60.3 58.9 22.9 120.5 43.8 185.3 46 57.1 2 123.8-12.8 161.7-51.5z"/>
	<path id="Layer" class="s1" d="m435.4 690.5l-342.2-1.7-34-79.7 120.2-8.8-20.9-87.4 237.8-30.9-227.7-79.1 20.1-4.8 366.2 59.7-20.1 136.5-28.9 75-70.4 21.2z"/>
	<path id="Layer" class="s1" d="m98.4 655.4c0 0 21-3.3 33.6 11.5 0 0-9.2 7.3-29.1-2.8z"/>
	<path id="Layer" class="s1" d="m101.5 663.3c-1.2 22.3-12.1 26.6-12.1 26.6-6.6-18.3 6.8-34.8 6.8-34.8z"/>
	<path id="Layer" class="s1" d="m84.2 628c0 0 8.4-15.4 42 6.1 0 0-4.5 10.4-19.3 9.6-14.9-0.9-18.8-7.6-22.7-15.7z"/>
	<path id="Layer" class="s1" d="m81.8 654.4c-7.9 12.7-18.9 10.4-18.9 10.4 1.7-39.9 19.1-37.9 19.1-37.9 4.4 7.8 7.6 14.9-0.2 27.5z"/>
	<path id="Layer" class="s1" d="m71.9 595c0 0 9.8-27.1 45.3-7.8 0 0-8.1 24.9-41.7 17.1z"/>
	<path id="Layer" class="s1" d="m60.9 554.4c0 0 18.5-27.4 51.3-2 0 0-11.5 25.8-48.5 11.8z"/>
	<path id="Layer" class="s1" d="m57 515.8c0 0 21.6-25.2 54 0 0 0-20.4 22.1-54 6.4z"/>
	<path id="Layer" class="s1" d="m53.7 478.3c0 0 21.8-26.3 52.9-1.4 0 0-24.7 23.2-52.9 7.5z"/>
	<path id="Layer" class="s1" d="m55.6 444.9c0 0.1 23-33.8 52.1-10.9 0 0-24.6 29.1-52.1 17.4z"/>
	<path id="Layer" class="s1" d="m60.9 406c0 0 24.4-33.6 52.7-7.8 0 0-28.9 29.1-52.7 14z"/>
	<path id="Layer" class="s1" d="m69.1 371.2c0 0 28.8-31.5 54-19 0 0-30.1 33.6-55.3 27.4z"/>
	<path id="Layer" class="s1" d="m79.1 338.3c0 0 33.3-38.7 52.7-25.8 0 0-24.5 30-55 33z"/>
	<path id="Layer" class="s1" d="m93.7 300c0 0 29.1-31.6 50.4-23.7 0 0-24.9 32.7-54.3 33.6z"/>
	<path id="Layer" class="s1" d="m106.9 264.2c0 0 32.2-30.2 46.2-24.9 0 0-23.3 33.6-47.6 31.6z"/>
	<path id="Layer" class="s1" d="m119.7 231.2c0 0 27.8-36.1 42.9-33.3 0 0-16.8 32.2-42.9 37z"/>
	<path id="Layer" class="s1" d="m133.7 186.6c0 0 24.5-27.7 37.8-27.6 0 0-19.4 37-38.8 36.7z"/>
	<path id="Layer" class="s1" d="m142 157l23.7-57.7c0 0 1.2 52.1-26.7 68.4z"/>
	<path id="Layer" class="s1" d="m151.6 93.4c0 0 3.9-48.2 1.4-52.1 0 0 16.9 40-1.6 73.3z"/>
	<path id="Layer" class="s1" d="m73.8 603.9c-21.4 27-43.3 12.5-43.3 12.5 15.9-37.2 40.4-22 40.4-22z"/>
	<path id="Layer" class="s1" d="m62.9 562.7c-24.2 31.3-47.5 15.3-47.5 15.3 14.6-38.8 44.7-25.1 44.7-25.1z"/>
	<path id="Layer" class="s1" d="m55.6 524.6c-33.5 15.6-54-6.5-54-6.5 32.5-25.2 54 0 54 0z"/>
	<path id="Layer" class="s1" d="m52.9 484.4c-28.3 15.7-52.9-7.5-52.9-7.5 31.1-24.9 52.9 1.4 52.9 1.4z"/>
	<path id="Layer" class="s1" d="m54.3 452.2c-29.3 5.7-47.3-27.9-47.3-27.9 33.3-16.3 48.6 21.6 48.6 21.6z"/>
	<path id="Layer" class="s1" d="m61.4 411.8c-26.9 8.7-47.5-26.7-47.5-26.7 33.7-17.9 49 20.7 49 20.7z"/>
	<path id="Layer" class="s1" d="m68.5 379.1c-24.3-9.2-30.2-53.8-30.2-53.8 28 3.8 34 46.1 34 46.1z"/>
	<path id="Layer" class="s1" d="m77.2 345.6c-22.1-21.3-22.8-60-22.8-60 23.1 1.7 25.5 52.7 25.5 52.7z"/>
	<path id="Layer" class="s1" d="m93.9 309c-24.1-16.9-26.8-58-26.8-58 22.1 5.2 29 47.6 29 47.6z"/>
	<path id="Layer" class="s1" d="m105.6 270.2c-18.2-16.3-9.8-56.3-9.8-56.3 13.5 6.5 13.7 50.7 13.7 50.7z"/>
	<path id="Layer" class="s1" d="m118.7 233.7c-18.6-18.9-13.8-54.9-13.8-54.9 14 6.4 15.9 51.9 15.9 51.9z"/>
	<path id="Layer" class="s1" d="m130.5 197.7c-14.8-12.6-4.9-53.1-4.9-53.1 10 8.7 10.1 45.7 10.1 45.7z"/>
	<path id="Layer" class="s1" d="m141.3 166.3c-23.4-22.3-10.2-72.7-10.2-72.7l9.7 61.6z"/>
	<path id="Layer" class="s1" d="m152.3 113c-31.3-21.7-34-65-34-65-0.5 4.5 24.4 46 24.4 46z"/>
	<path id="Layer" class="s1" d="m145.6 81.7c0 0-23.5-58.8-34.1-63.5 0 0 33.6 17 36.1 61.8z"/>
	<path id="Layer" class="s2" d="m132.6 196l-1.6-0.5c19.8-64.7 24.8-106 13.9-116.3l1.2-1.2c11.5 10.9 6.8 51.7-13.5 118z"/>
	<path id="Layer" class="s2" d="m77.9 347.6l-2.4-0.9c2.2-5.9 4.4-11.9 6.8-17.9 20.7-51.6 38.4-99.6 49.7-136.5l2.1-1c-11.4 36.9-28.7 86.8-49.5 138.5-2.3 5.8-4.6 11.8-6.7 17.8z"/>
	<path id="Layer" class="s2" d="m128 703.9c-0.3-0.4-32.5-36.6-54.9-98.5q-4.9-13.5-8.8-27.4-3.8-13.9-6.5-28.1-2.7-14.2-4.3-28.5-1.6-14.3-2.1-28.7c-1.5-48.2 8.6-101.9 25.9-150.7l1.9 2.2c-38.9 109.5-23.4 203.4-3 260 22.2 61.3 54 97.1 54.3 97.4z"/>
	<path id="Layer" class="s3" d="m630.7 626.9c0 0-22.6 27.7-4.6 69.5l-181 78.5-17.4 3.7-8-35 5.3-44.2v-24.1z"/>
	<path id="Layer" class="s1" d="m59.2 609.1l250.5-45.7 331.9 52.9-206.1 74.2-376.3-81.4z"/>
	<path id="Layer" class="s1" d="m59.2 609.1l250.5-45.7 331.9 52.9-206.1 74.2-376.3-81.4z"/>
	<path id="Layer" class="s1" d="m435.4 690.5c-24.2 49.1-1.2 84.4-1.2 84.4l-371.5-80.5c-27-41-3.5-85.3-3.5-85.3z"/>
	<path id="Layer" class="s4" d="m435.4 690.5c-24.2 49.1-1.2 84.4-1.2 84.4l-371.5-80.5c-27-41-3.5-85.3-3.5-85.3z"/>
	<path id="Layer" class="s4" d="m70.2 624.4c0 0-13.4 32.5 0 53.5"/>
	<path id="Layer" class="s1" d="m434.2 774.9l207.4-88.5c0 0 11.6 2.5 4.1 11-7.5 8.5-207.5 86-207.5 86l-375.5-89z"/>
	<path id="Layer" class="s4" d="m434.2 774.9l207.4-88.5c0 0 11.6 2.5 4.1 11-7.5 8.5-207.5 86-207.5 86l-375.5-89z"/>
	<path id="Layer" class="s4" d="m417.2 699.4c0 0-20 24 0 60"/>
	<path id="Layer" class="s4" d="m424.3 729l89.8-30 0.3 1-89.7 29.9z"/>
	<path id="Layer" class="s4" d="m424.3 737l107.7-40.9 0.4 0.9-107.7 40.9z"/>
	<path id="Layer" class="s4" d="m424.9 746.5l123.6-50.6 0.4 0.9-123.6 50.6z"/>
	<path id="Layer" class="s4" d="m426.4 754.9l140.1-63.3 0.4 0.9-140.1 63.3z"/>
	<path id="Layer" class="s4" d="m427.5 758.9l154-67.3 0.4 0.9-154 67.4z"/>
	<path id="Layer" class="s4" d="m429.8 765.8l184.7-79.8 0.4 0.9-184.7 79.8z"/>
	<path id="Layer" class="s5" d="m152.2 613.9l176-37 107.3 20.5-144.3 46.5-139-30z"/>
	<path id="Layer" class="s1" d="m641.6 616.3c0 0 9.1 3.6 3.8 9.3-5.4 5.7-210 64.9-210 64.9z"/>
	<path id="Layer" class="s3" d="m730 530.8c0 0-22.6 27.6-4.6 69.5l-181 78.5-17.4 3.6-8-35 5.4-44.1v-24.2z"/>
	<path id="Layer" class="s6" d="m158.5 512.9l250.5-45.7 331.9 52.9-206.1 74.2-376.3-81.4z"/>
	<path id="Layer" class="s6" d="m534.7 594.3c-24.3 49.1-1.2 84.5-1.2 84.5l-371.5-80.5c-27-41-3.6-85.4-3.6-85.4z"/>
	<path id="Layer" class="s4" d="m417.2 568.9l117.5 25.4c-24.3 49.1-1.2 84.5-1.2 84.5l-371.5-80.5c-27-41-3.6-85.4-3.6-85.4z"/>
	<path id="Layer" class="s4" d="m169.5 528.3c0 0-13.4 32.4 0 53.5"/>
	<path id="Layer" class="s6" d="m533.5 678.8l207.4-88.5c0 0 11.6 2.5 4.1 11-7.5 8.5-207.5 86-207.5 86l-375.5-89z"/>
	<path id="Layer" class="s4" d="m533.5 678.8l207.4-88.5c0 0 11.6 2.5 4.1 11-7.5 8.5-207.5 86-207.5 86l-375.5-89z"/>
	<path id="Layer" class="s4" d="m516.5 603.3c0 0-20 24 0 60"/>
	<path id="Layer" class="s4" d="m523.6 632.8l89.8-29.9 0.3 0.9-89.7 29.9z"/>
	<path id="Layer" class="s4" d="m523.6 640.8l107.7-40.9 0.4 0.9-107.7 41z"/>
	<path id="Layer" class="s4" d="m524.2 650.3l123.6-50.6 0.4 0.9-123.6 50.6z"/>
	<path id="Layer" class="s4" d="m525.7 658.7l140.1-63.3 0.4 0.9-140.1 63.3z"/>
	<path id="Layer" class="s4" d="m526.8 662.7l154-67.3 0.4 0.9-154 67.4z"/>
	<path id="Layer" class="s4" d="m529.1 669.6l184.7-79.8 0.4 0.9-184.7 79.8z"/>
	<path id="Layer" class="s7" d="m251.5 517.8l176-37 107.3 20.5-144.3 46.5-139-30z"/>
	<path id="Layer" class="s6" d="m740.9 520.1c0 0 9.1 3.7 3.8 9.3-5.3 5.7-210 64.9-210 64.9z"/>
	<path id="Layer" class="s3" d="m739.4 420.7c0 0-22.6 49.7-4.6 91.5l-181 56.5-17.4 3.7-8-35 5.4-44.2v-24.1z"/>
	<path id="Layer" class="s1" d="m167.9 402.9l250.5-45.7 332 52.9-206.2 74.2-376.3-81.4z"/>
	<path id="Layer" class="s1" d="m544.1 484.3c-24.2 49-1.2 84.4-1.2 84.4l-371.5-80.5c-27-41-3.5-85.4-3.5-85.4z"/>
	<path id="Layer" class="s4" d="m544.1 484.3c-24.2 49-1.2 84.4-1.2 84.4l-371.5-80.5c-27-41-3.5-85.4-3.5-85.4z"/>
	<path id="Layer" class="s4" d="m179 418.2c0 0-13.4 32.5 0 53.5"/>
	<path id="Layer" class="s1" d="m543 568.7l207.4-66.5c0 0 11.6 2.5 4.1 11-7.5 8.5-207.5 64-207.5 64l-375.5-89z"/>
	<path id="Layer" class="s4" d="m543 568.7l207.4-66.5c0 0 11.6 2.5 4.1 11-7.5 8.5-207.5 64-207.5 64l-375.5-89z"/>
	<path id="Layer" class="s4" d="m526 493.2c0 0-20 24 0 60"/>
	<path id="Layer" class="s4" d="m533.1 522.8l89.7-30 0.3 1-89.7 29.9z"/>
	<path id="Layer" class="s4" d="m533.1 530.8l107.7-40.9 0.3 0.9-107.7 40.9z"/>
	<path id="Layer" class="s4" d="m533.6 540.3l123.6-50.6 0.4 0.9-123.6 50.6z"/>
	<path id="Layer" class="s4" d="m535.1 548.7l140.1-63.3 0.4 0.9-140.1 63.3z"/>
	<path id="Layer" class="s4" d="m536.2 552.7l154.1-67.3 0.4 0.9-154.1 67.3z"/>
	<path id="Layer" class="s4" d="m538.5 559.6l184.8-79.8 0.4 0.9-184.8 79.8z"/>
	<path id="Layer" class="s5" d="m261 407.7l176-37 107.2 20.5-144.2 46.5-139-30z"/>
	<path id="Layer" class="s1" d="m750.4 410.1c0 0 9.1 3.6 3.7 9.3-5.3 5.7-209.9 64.9-209.9 64.9z"/>
	<path id="Layer" class="s1" d="m303.8 109.4q-1.1-0.5-2.2-0.8-1.1-0.2-2.2-0.4-1.1-0.1-2.2-0.1-1.2 0.1-2.3 0.3c0 0 0.1 0.3 1.5 0.5 1.4 0.1 6.1 1.1 6.1 1.1l-3.2 1.4c-7.5-2.4-11.6-0.2-11.6-0.2 3.9-0.5 10.4 0.9 10.4 0.9l-4.5 2.6c-8.1-2.3-11.8 0.9-11.8 0.9 3.2-1.1 10.8-0.1 10.8-0.1l-4 3.3c-7.3-1.6-10.4 2-10.4 2 3.5-1.6 9.3-1.1 9.3-1.1-0.8 0.2-3.7 4.3-3.7 4.3-5.8 0.3-6.8 4.5-6.4 4.1q0.6-0.5 1.2-1 0.6-0.4 1.3-0.8 0.7-0.3 1.5-0.6 0.7-0.3 1.5-0.4-0.7 1.1-1.3 2.2-0.5 1.2-0.9 2.4-0.4 1.2-0.6 2.4-0.2 1.3-0.3 2.5c0.4-3.6 3.9-9 3.9-9 1 0.1 2 8.2 2 8.2 1.8-3.1-1-9.1-1-9.1 0.5-1.3 4.1-4.5 4.1-4.5 2.2 0.9 2.5 13.1 2.5 13.1 2.5-5.7-1.6-13.9-1.6-13.9l4.1-3.2c3.1 4.1 2.4 14.5 2.4 14.5 2.9-6.8-1.5-15.1-1.5-15.1l4.6-2.7c3.1 3.4 2.1 13.4 2.1 13.4 2.8-5.9-1-14-1-14 0 0 3.1-1.6 3.4-1.6 1.2-0.2 1.4 8.2 1.4 8.2 1.7-3.9-0.5-8.5-0.5-8.5l6.5-2.8c0.1 1-3 4.8-3 4.8-4.2 17.5-14.9 21.9-14.9 21.9q-0.5 0.5-1.1 0.9-0.6 0.3-1.2 0.6-0.7 0.2-1.3 0.4-0.7 0.2-1.4 0.2-0.5 0-1.1 0.1-0.5 0-1-0.1-0.5 0-1 0-0.5-0.1-1.1-0.2c-3.8-0.7-3.9 1.3-3.9 1.3-4.2-2.1-3.3-6.8-3.3-6.8-4.5-26.7 33.5-24.4 33.5-24.4 0.2 0.4-5.9 3.1-6.6 2.9z"/>
	<path id="Layer" class="s0" d="m838.4 218.9q-1.1-0.4-2.2-0.7-1.1-0.3-2.2-0.4-1.1-0.1-2.3-0.1-1.1 0-2.2 0.2c0 0 0 0.4 1.4 0.6 1.4 0.1 6.2 1 6.2 1l-3.2 1.4c-7.5-2.3-11.6-0.1-11.6-0.1 3.8-0.5 10.3 0.9 10.3 0.9l-4.4 2.6c-8.2-2.3-11.9 0.8-11.9 0.8 3.2-1.1 10.8-0.1 10.8-0.1l-4 3.3c-7.2-1.5-10.3 2-10.3 2 3.5-1.5 9.3-1 9.3-1-0.8 0.2-3.8 4.3-3.8 4.3-5.8 0.3-6.7 4.5-6.3 4.1q0.6-0.5 1.2-1 0.6-0.4 1.3-0.8 0.7-0.4 1.5-0.6 0.7-0.3 1.5-0.4-0.7 1-1.3 2.2-0.5 1.1-0.9 2.3-0.4 1.3-0.6 2.5-0.3 1.3-0.3 2.5c0.3-3.6 3.9-9 3.9-9 0.9 0.1 2 8.2 2 8.2 1.8-3.2-1.1-9.2-1.1-9.2 0.6-1.3 4.2-4.4 4.2-4.4 2.1 0.9 2.5 13 2.5 13 2.5-5.6-1.6-13.8-1.6-13.8l4-3.2c3.2 4.1 2.4 14.5 2.4 14.5 3-6.8-1.4-15.1-1.4-15.1l4.5-2.7c3.2 3.4 2.1 13.4 2.1 13.4 2.9-5.9-0.9-14-0.9-14 0 0 3.1-1.6 3.3-1.6 1.3-0.2 1.5 8.1 1.5 8.1 1.7-3.8-0.5-8.4-0.5-8.4l6.4-2.8c0.1 1-3 4.8-3 4.8-4.1 17.5-14.8 21.9-14.8 21.9q-0.5 0.5-1.1 0.8-0.6 0.4-1.3 0.7-0.6 0.2-1.3 0.4-0.6 0.1-1.3 0.2-0.5 0-1.1 0-0.5 0-1 0-0.5 0-1-0.1-0.5 0-1.1-0.1c-3.8-0.7-3.9 1.3-3.9 1.3-4.2-2.1-3.3-6.9-3.3-6.9-4.5-26.6 33.5-24.3 33.5-24.3 0.1 0.4-5.9 3.1-6.6 2.8z"/>
	<path id="Layer" class="s0" d="m368.7 266.9q-0.1-1.1-0.4-2.2-0.3-1.1-0.8-2.1-0.4-1.1-1-2.1-0.6-0.9-1.3-1.8c0 0-0.2 0.2 0.3 1.5 0.5 1.3 2 5.9 2 5.9l-2.8-2.1c-1.6-7.7-5.5-10.2-5.5-10.2 2.3 3.1 4.3 9.4 4.3 9.4l-4.5-2.5c-2-8.3-6.5-10-6.5-10 2.5 2.2 5.3 9.3 5.3 9.3l-4.8-1.9c-2.1-7-6.7-8-6.7-8 3 2.3 5.4 7.6 5.4 7.6-0.6-0.6-5.6-1.2-5.6-1.2-3.1-4.9-7.2-3.7-6.7-3.5q0.8 0.2 1.5 0.5 0.7 0.4 1.3 0.8 0.7 0.4 1.3 1 0.5 0.5 1.1 1.1-1.3-0.1-2.6 0-1.3 0.1-2.5 0.3-1.2 0.3-2.4 0.7-1.2 0.4-2.4 1c3.4-1.5 9.8-1 9.8-1 0.4 0.8-6.1 5.7-6.1 5.7 3.6 0 7.4-5.4 7.4-5.4 1.4-0.2 5.9 1.4 5.9 1.4 0.3 2.4-10.2 8.6-10.2 8.6 6.2-0.6 11.4-8.2 11.4-8.2l4.7 2c-2 4.7-11.5 9.1-11.5 9.1 7.4-0.7 12.6-8.6 12.6-8.6l4.5 2.7c-1.5 4.4-10.7 8.3-10.7 8.3 6.5-0.4 11.8-7.6 11.8-7.6 0 0 2.8 1.9 3 2.1 0.7 1-6.4 5.2-6.4 5.2 4.1-0.3 7.1-4.5 7.1-4.5l5.6 4.3c-0.8 0.6-5.7-0.3-5.7-0.3-17.2 4.9-26.3-2.3-26.3-2.3q-0.7-0.2-1.3-0.5-0.6-0.4-1.1-0.8-0.6-0.4-1.1-0.9-0.4-0.6-0.8-1.2-0.3-0.4-0.6-0.8-0.2-0.5-0.4-0.9-0.3-0.5-0.5-1-0.2-0.5-0.3-1c-1.3-3.6-3-2.7-3-2.7-0.3-4.8 4.3-6.3 4.3-6.3 21.1-16.9 37.6 17.4 37.6 17.4-0.3 0.3-5.6-3.5-5.7-4.3z"/>
	<path id="Layer" class="s0" d="m752.5 163.4q-0.2-1.2-0.5-2.3-0.3-1.1-0.7-2.1-0.4-1.1-1-2-0.6-1-1.3-1.9c0 0-0.3 0.3 0.2 1.5 0.6 1.3 2 5.9 2 5.9l-2.7-2.1c-1.6-7.7-5.5-10.2-5.5-10.2 2.3 3.1 4.2 9.5 4.2 9.5l-4.4-2.6c-2-8.3-6.6-10-6.6-10 2.6 2.3 5.4 9.4 5.4 9.4l-4.9-1.9c-2.1-7.1-6.7-8.1-6.7-8.1 3.1 2.3 5.5 7.6 5.5 7.6-0.6-0.6-5.6-1.2-5.6-1.2-3.1-4.9-7.2-3.7-6.7-3.5q0.7 0.2 1.4 0.5 0.7 0.4 1.4 0.8 0.6 0.4 1.2 1 0.6 0.5 1.1 1.1-1.3-0.1-2.5 0-1.3 0.1-2.5 0.3-1.3 0.3-2.5 0.7-1.2 0.4-2.3 1c3.4-1.5 9.8-1 9.8-1 0.4 0.8-6.1 5.6-6.1 5.6 3.6 0 7.4-5.3 7.4-5.3 1.4-0.2 5.9 1.4 5.9 1.4 0.2 2.3-10.2 8.6-10.2 8.6 6.2-0.6 11.3-8.2 11.3-8.2l4.8 2c-2 4.7-11.5 9.1-11.5 9.1 7.4-0.7 12.5-8.6 12.5-8.6l4.6 2.6c-1.4 4.5-10.6 8.4-10.6 8.4 6.5-0.4 11.7-7.6 11.7-7.6 0 0 2.8 1.9 3 2.1 0.7 1-6.4 5.2-6.4 5.2 4.2-0.3 7.2-4.5 7.2-4.5l5.4 4.3c-0.8 0.5-5.6-0.3-5.6-0.3-17.3 4.9-26.3-2.3-26.3-2.3q-0.7-0.2-1.3-0.5-0.6-0.4-1.2-0.8-0.5-0.4-1-1-0.4-0.5-0.8-1.1-0.3-0.4-0.6-0.8-0.2-0.5-0.5-1-0.2-0.4-0.4-0.9-0.2-0.5-0.4-1c-1.2-3.6-3-2.7-3-2.7-0.2-4.8 4.4-6.3 4.4-6.3 21-17 37.6 17.4 37.6 17.4-0.3 0.3-5.6-3.5-5.7-4.2z"/>
	<path id="Layer" class="s0" d="m805.3 333.1q-0.1-1.1-0.4-2.2-0.3-1.1-0.7-2.2-0.5-1-1-2-0.6-1-1.3-1.9c0 0-0.3 0.3 0.2 1.6 0.5 1.2 2 5.8 2 5.8l-2.7-2c-1.7-7.7-5.6-10.2-5.6-10.2 2.4 3.1 4.3 9.4 4.3 9.4l-4.4-2.5c-2-8.3-6.6-10-6.6-10 2.6 2.2 5.4 9.4 5.4 9.4l-4.9-2c-2.1-7.1-6.7-8-6.7-8 3 2.3 5.4 7.5 5.4 7.5-0.6-0.5-5.6-1.1-5.6-1.1-3.1-4.9-7.1-3.7-6.6-3.5q0.7 0.2 1.4 0.5 0.7 0.3 1.4 0.8 0.6 0.4 1.2 0.9 0.6 0.5 1.1 1.1-1.3 0-2.5 0.1-1.3 0.1-2.6 0.3-1.2 0.3-2.4 0.7-1.2 0.4-2.3 0.9c3.3-1.5 9.8-1 9.8-1 0.4 0.8-6.2 5.7-6.2 5.7 3.6 0 7.5-5.4 7.5-5.4 1.4-0.1 5.9 1.5 5.9 1.5 0.2 2.3-10.2 8.5-10.2 8.5 6.1-0.5 11.3-8.1 11.3-8.1l4.8 2c-2 4.7-11.5 9.1-11.5 9.1 7.4-0.7 12.5-8.6 12.5-8.6l4.5 2.6c-1.4 4.5-10.6 8.4-10.6 8.4 6.5-0.4 11.7-7.6 11.7-7.6 0 0 2.8 1.9 3 2.1 0.8 1-6.4 5.2-6.4 5.2 4.2-0.3 7.2-4.5 7.2-4.5l5.5 4.3c-0.8 0.5-5.6-0.3-5.6-0.3-17.3 4.9-26.4-2.3-26.4-2.3q-0.6-0.2-1.3-0.5-0.6-0.4-1.1-0.8-0.6-0.4-1-1-0.5-0.5-0.9-1.1-0.3-0.4-0.5-0.8-0.3-0.5-0.5-1-0.2-0.4-0.4-0.9-0.2-0.5-0.4-1c-1.3-3.6-3-2.7-3-2.7-0.2-4.8 4.3-6.3 4.3-6.3 21.1-17 37.7 17.4 37.7 17.4-0.3 0.3-5.7-3.6-5.8-4.3z"/>
	<path id="Layer" class="s8" d="m201.9 784.2c-12.7 0-22.9-1.2-22.9-2.6 0-1.4 10.2-2.6 22.9-2.6 12.8 0 23 1.2 23 2.6 0 1.4-10.2 2.6-23 2.6z"/>
	<path id="Layer" class="s8" d="m51.2 740.5c-12.7 0-23-1.2-23-2.6 0-1.4 10.3-2.6 23-2.6 12.8 0 23 1.2 23 2.6 0 1.4-10.2 2.6-23 2.6z"/>
	<path id="Layer" class="s8" d="m316.8 813.2c-12.7 0-23-1.2-23-2.6 0-1.4 10.3-2.6 23-2.6 12.7 0 23 1.2 23 2.6 0 1.4-10.3 2.6-23 2.6z"/>
	<path id="Layer" class="s8" d="m905.5 750c-12.7 0-23-1.2-23-2.6 0-1.4 10.3-2.6 23-2.6 12.7 0 23 1.2 23 2.6 0 1.4-10.3 2.6-23 2.6z"/>
	<path id="Layer" class="s8" d="m714.2 737.5c-12.7 0-23-1.1-23-2.6 0-1.4 10.3-2.5 23-2.5 12.7 0 23 1.1 23 2.5 0 1.5-10.3 2.6-23 2.6z"/>
	<path id="Layer" class="s8" d="m590.5 798.3c-15.1 0-27.2-2.1-27.2-4.6 0-2.6 12.1-4.7 27.2-4.7 15 0 27.2 2.1 27.2 4.7 0 2.5-12.2 4.6-27.2 4.6z"/>
	<path id="Layer" class="s1" d="m597.9 753.3q-1.2 0.1-2.4 0.5-1.3 0.4-2.4 0.9-1.2 0.5-2.2 1.2-1.1 0.7-2.1 1.5c0 0 0.3 0.3 1.7-0.3 1.4-0.7 6.5-2.5 6.5-2.5l-2.2 3.2c-8.6 2-11.2 6.4-11.2 6.4 3.4-2.6 10.4-5 10.4-5l-2.7 5c-9.2 2.5-11 7.6-11 7.6 2.5-2.9 10.3-6.2 10.3-6.2l-2 5.4c-7.8 2.6-8.8 7.8-8.8 7.8 2.5-3.5 8.3-6.3 8.3-6.3-0.6 0.7-1.1 6.3-1.1 6.3-5.4 3.6-3.9 8.1-3.8 7.6q0.3-0.9 0.6-1.7 0.4-0.8 0.8-1.5 0.5-0.8 1.1-1.4 0.5-0.7 1.2-1.3c-0.5 5.6 2.5 11 2.5 11-1.8-3.8-1.4-11-1.4-11 0.9-0.4 6.5 6.7 6.5 6.7-0.1-4-6.2-8.1-6.2-8.1-0.2-1.6 1.4-6.7 1.4-6.7 2.6-0.3 9.9 11.1 9.9 11.1-0.8-6.8-9.5-12.3-9.5-12.3l2.1-5.5c5.4 2.2 10.6 12.6 10.6 12.6-1-8.2-10-13.7-10-13.7l2.9-5.1c5 1.4 9.6 11.6 9.6 11.6-0.6-7.3-8.8-12.9-8.8-12.9 0 0 2-3.2 2.2-3.4 1-0.9 6 7 6 7-0.5-4.7-5.3-7.9-5.3-7.9l4.6-6.3c0.7 0.9-0.1 6.3-0.1 6.3 6 19.2-1.7 29.5-1.7 29.5q-0.2 0.8-0.6 1.4-0.4 0.7-0.8 1.4-0.5 0.6-1.1 1.1-0.5 0.6-1.2 1-0.4 0.3-0.9 0.6-0.5 0.3-1 0.6-0.6 0.3-1.1 0.5-0.5 0.3-1.1 0.5c-4 1.5-3 3.5-3 3.5-5.3 0.3-7.1-4.7-7.1-4.7-19.6-23 18.3-42.6 18.3-42.6 0.3 0.4-3.8 6.4-4.7 6.6z"/>
	<path id="Layer" fill-rule="evenodd" class="s9" d="m710.8 422.5c-2.7 3.4-13.5 9.3-14.5 11.4-1 2-13.8 8-20.4 9-1.5 0.3-3.8 0.7-6.5 1.2 9.4 1.4 30.7 6.3 37.6 23.3 9 22.1-12.8 26.5-12.8 26.5h-1.6c-5.9-0.3-25.7-0.9-29.5 0-2.5 0.5-21 0.5-37.5 0.3l-11.3 0.1 0.4-0.2c-9-0.1-15.7-0.2-15.7-0.2l3.4-0.7-7.2-0.2q-0.4 0.5-0.9 0.9-0.5 0.4-1 0.8-0.5 0.3-1.1 0.7-0.5 0.3-1.1 0.5c-7.6 2.7-40.2-6-47.3-8-3.5-1-10.8-3.7-17.3-6.2-3.1 2.3-8 5.3-13 4.8q-1.3 0-2.5 0-1.2-0.1-2.5-0.1-1.2 0.1-2.4 0.1-1.3 0-2.5 0.1l-31.5 4.5q-1.1 0.6-2.2 1.2-1.1 0.6-2.2 1.3-1 0.7-2 1.4-1.1 0.7-2.1 1.4c-6.5 5-9.9 1.1-10.6 0.2l-0.1-0.2c-3.4 10.6-11.4 2.5-11.4 2.5 0 0 3.4-32.1 2.4-36.1-1.1-4.1 7.6-10.9 6.8-11q-1.1-0.1-2.3-0.2-1.1-0.1-2.3-0.2-1.2 0-2.3 0-1.2-0.1-2.3 0c-7.3 0-36.4-10.8-39.5-15.5q-0.9-1.2-1.8-2.3-1-1.1-2-2.2-1.1-1-2.2-2-1.1-1-2.3-1.8c0 0-4.8-0.7-15.2-26.1-10.4-25.5 12.1-31.3 21.4-37.6 9.4-6.3 41.6 2.7 51.3 6.7q1.2 0.5 2.5 0.8 1.3 0.4 2.6 0.7 1.3 0.4 2.7 0.6 1.3 0.2 2.7 0.4 0.1-0.4 0.3-0.8 0.2-0.3 0.4-0.7 0.2-0.4 0.4-0.7 0.3-0.4 0.5-0.7-0.3 0-0.6 0-0.2-0.1-0.5-0.2-0.3 0-0.5-0.2-0.3-0.1-0.5-0.2c-1.5-0.8-1.8-3.6-1.3-7.3q-1.3-0.2-2.5-0.5-1.2-0.3-2.3-0.8-1.2-0.5-2.2-1.1-1.1-0.6-2.1-1.4c-9-4-6.6-21.1-8.3-25.8-1.8-4.7-3.6-40.2-3.6-40.2 0 0-0.9-25.1-2.6-30.2-1.5-4.4-2.7-25.2-3-31h-0.1c0-0.3 0-1 0-1q0-0.5 0-0.5l0.9-15.8-0.9-10.9h0.2l-0.2-2h1.7v-0.5c0 0 9.1-9.4 19.8-19.1q-1.7-1.6-3-3.4-1.4-1.9-2.6-3.9-1.1-2-1.9-4.1-0.8-2.2-1.3-4.4c-5.2-24.5 22.2-46.4 19.1-71.2-1.4-11.1-8.9-21.5-6.8-32.5 1-5.5 4.4-10.3 7.7-14.9q0.8-1.3 1.7-2.5 1-1.3 1.9-2.5 1-1.1 2.1-2.3 1-1.1 2.1-2.2 0.4-0.4 0.8-0.9 0.5-0.4 0.9-0.8 0.5-0.4 0.9-0.7 0.5-0.4 1-0.7c7.3-5.3 17.5-6.5 24-12.4q0.4-0.3 0.7-0.7c3.3-3.9 4.7-9 8-12.9q0.2-0.2 0.4-0.5 0.2-0.2 0.5-0.4 0.2-0.3 0.4-0.5 0.2-0.2 0.5-0.4c6-6.4 16.3-7.6 25.2-6.1 17.8 3 32.8 16.1 42.9 30q0.5 0.7 1 1.5 0.5 0.7 0.9 1.5 0.4 0.8 0.7 1.6 0.4 0.8 0.7 1.7 1.8 0.2 3.6 0.5 1.8 0.2 3.6 0.6 1.8 0.3 3.6 0.7 1.8 0.4 3.6 0.8 0.7 0.2 1.4 0.4 0.7 0.1 1.4 0.4 0.7 0.3 1.4 0.6 0.6 0.4 1.2 0.8c1.8 1.4 2.6 3.6 3.2 5.7q0.6 2.3 1 4.5 0.4 2.3 0.7 4.6 0.2 2.3 0.3 4.7 0 2.3-0.1 4.6 0.3-2.7 0.4-5.4c0.6 18.3-6.5 37.1-7 55.8q0-2.1 0-4.3c0-0.7 0-1.4 0-2-0.2 2.2-0.4 4.5-0.4 6.7-0.3 15 3.6 29.8 5.3 44.6 6.7 3 13.6 6 19.3 8.6 15.6 6.9 16 25.2 16 28.8q0 0.6 0 0.9c0.1 1.8 1 12.5 1 21.1 0 1.9-0.1 3.6-0.2 5.2l0.2 2.2q0 0 0 0.5c-0.2 3.7-1.5 27.3-3.1 32-1.8 5.1-2.6 30.2-2.6 30.2 0 0-0.1 0.9-0.2 2.4v3.4h-0.2c-0.6 10.3-2 30.9-3.3 34.4-1.7 4.7 0.7 21.8-8.3 25.8 0 0-6.8 5.7-14.4 3.3q-0.1 0.8-0.2 1.7 0 0.9 0 1.7 0 0.9 0 1.8 0 0.8 0.1 1.7c0.2 1.7 0.1 2.9-1.5 3.4l0.8 0.8c12.5-1.8 35.9-5.5 47-8.7 15.6-4.6 51.6-2.9 58.2 14.9 6.5 17.8-1.4 41.8-4.2 45.2zm-183.2 4.2q1.9 1.2 3.5 2.3l1.4-1.4 0.7-0.2 1.1-0.4q-3.4-0.2-6.7-0.3z"/>
	<path id="Layer" class="s10" d="m601.8 232.9l0.5-2.8 1.1-6.7 3-17.2 21.7-8 9.3 2.4 1.7 29q0 0 0 0.5c-0.2 3.7-1.5 27.1-3 31.8-1.7 5-2.5 30-2.5 30 0 0-1.9 35.4-3.5 40-1.7 4.7 0.7 21.7-8 25.7-8.7 4-24-36-24-36z"/>
	<path id="Layer" class="s4" d="m603.1 314.9c0 0 14.6 11.9 19 13 4.4 1 7.1 10.4 7.1 10.4"/>
	<path id="Layer" class="s10" d="m478.4 323.3c0 0-15.3 40-24 36-8.7-4-6.3-21-8-25.6-1.6-4.7-3.5-40-3.5-40 0 0-0.8-25-2.5-30.1-1.5-4.6-2.8-28.1-3-31.8q0-0.5 0-0.5l1.7-29 9.3-2.3 21.7 8 3 17.1 1.1 6.7 0.5 2.9z"/>
	<path id="Layer" class="s11" d="m543.9 109.3h34.1v53.2h-34.1z"/>
	<path id="Layer" class="s4" d="m543.9 109.3h34.1v53.2h-34.1z"/>
	<path id="Layer" class="s12" d="m598.4 363.2c0 0 8.4 7.8 9.9 9.5 1.5 1.6 15.5-1.4 15.5-1.4 0 0 0.3 30.4-17 47.4-17.4 17-109.4 5.6-109.4 5.6 0 0-28-43.6-32.3-46-4.3-2.3 7.3-15.1 7.3-15.1 8-7.2 126 0 126 0z"/>
	<path id="Layer" class="s13" d="m598.4 363.2c0 0 8.4 7.8 9.9 9.5 1.5 1.6 15.5-1.4 15.5-1.4 0 0 0.3 30.4-17 47.4-17.4 17-109.4 5.6-109.4 5.6 0 0-28-43.6-32.3-46-4.3-2.3 7.3-15.1 7.3-15.1 8-7.2 126 0 126 0z"/>
	<path id="Layer" class="s10" d="m638 201l-30 24-9 0.7-3.4 0.2-55.9 4.1-58-4.2-8.6-0.7-11-0.8-23-22c0 0 16.3-17.4 30.5-29.2 5.6-4.6 10.9-8.4 14.8-9.9l0.7-0.2q0.9-0.4 1.8-0.8 0.8-0.5 1.6-1 0.8-0.6 1.5-1.2 0.8-0.7 1.4-1.4c11.3-11.6 21.7-40.3 21.7-40.3 0 0 49.7-25.6 43.7 8-6 33.7 22.3 25.4 22.3 25.4l9.3 4.2 3.7 1.7 9.4 4.3 21.3 9.8c16.6 7.6 15.2 29.3 15.2 29.3z"/>
	<path id="Layer" class="s4" d="m537.4 145.7c-24.7 0-44.7-19.9-44.7-44.6 0-24.7 20-44.7 44.7-44.7 24.7 0 44.6 20 44.6 44.7 0 24.7-19.9 44.6-44.6 44.6z"/>
	<path id="Layer" class="s4" d="m638.1 232.8h-200.7q0-0.5 0-0.5l1.7-29c0 0 16.3-17.4 30.5-29.2l126-5 5.9-6.2 21.2 9.8c16.7 7.6 15.3 29.3 15.3 29.3 0 0 2.3 25.1 0.1 30.8z"/>
	<path id="Layer" class="s14" d="m638.1 231.8h-200.7q0-0.5 0-0.5l1.7-29c0 0 16.3-17.4 30.5-29.2l126-5 5.9-6.2 21.2 9.8c16.7 7.6 15.3 29.3 15.3 29.3 0 0 2.3 25.1 0.1 30.8z"/>
	<path id="Layer" class="s4" d="m505.2 150.5c0 0 31.7 40.3 73.8-0.8 42.2-41.2 4.7 91.8 4.7 91.8l-91 10.8z"/>
	<path id="Layer" class="s14" d="m505.2 152.5c0 0 31.7 40.3 73.8-0.8 42.2-41.2 4.7 91.8 4.7 91.8l-91 10.8z"/>
	<path id="Layer" class="s4" d="m592.1 159.6l3.3 51.1 3.6 17 2.7 13c0 0 7 100 5 105-2 5 1 9 1.5 11.6 0.4 2.7-0.5 9.4-0.1 12.4 0.3 3 0 4.3-7.7 3.2-7.6-1-18.3-2.9-18.3-2.9 0 0-27 2-36.4-1.3-9.3-3.4-27-3.4-27-3.4 0 0-26.6 0.7-35.3-0.3-8.6-1-13.3 10.7-19 7.3-5.6-3.3 6.7-35.6 10.7-45 4-9.3-5.4-33-5.4-33l12-66.5 2.7-15.1v-47.5l0.7-0.2q0.9-0.4 1.8-0.8 0.8-0.5 1.6-1 0.8-0.6 1.5-1.2 0.8-0.7 1.4-1.4l3 47.7 94 3.4v-53.8"/>
	<path id="Layer" class="s14" d="m592.1 157.6l3.3 51.1 3.6 17 2.7 13c0 0 7 100 5 105-2 5 1 9 1.5 11.6 0.4 2.7-0.5 9.4-0.1 12.4 0.3 3 0 4.3-7.7 3.2-7.6-1-18.3-2.9-18.3-2.9 0 0-27 2-36.4-1.3-9.3-3.4-27-3.4-27-3.4 0 0-26.6 0.7-35.3-0.3-8.6-1-13.3 10.7-19 7.3-5.6-3.3 6.7-35.6 10.7-45 4-9.3-5.4-33-5.4-33l12-66.5 2.7-15.1v-47.5l0.7-0.2q0.9-0.4 1.8-0.8 0.8-0.5 1.6-1 0.8-0.6 1.5-1.2 0.8-0.7 1.4-1.4l3 47.7 94 3.4v-53.8"/>
	<path id="Layer" class="s4" d="m598 119.8c-0.4 20.4 6.9 40.4 5.8 60.8q-0.3 4.5-1.1 9-0.7 4.4-2 8.8-1.3 4.4-3 8.5-1.7 4.2-3.9 8.2c-5.3 9.6-14.6 19.2-25.4 17.3q-0.4 0-0.8-0.1-0.3-0.1-0.6-0.2-0.4-0.2-0.7-0.4-0.3-0.2-0.5-0.4-0.3-0.4-0.5-0.8-0.1-0.4-0.2-0.9-0.1-0.4-0.1-0.9-0.1-0.4 0-0.8c0.7-10.3 6.9-19.2 10.5-28.8q0.3-0.9 0.6-1.9 0.3-0.9 0.5-1.9 0.2-0.9 0.2-1.9 0.1-1 0.1-2-0.2-0.9-0.4-1.9-0.3-0.9-0.6-1.8-0.3-1-0.8-1.8-0.4-0.9-0.9-1.8c-6.3-11.9-13.6-24.3-13.2-37.9 0.2-8.9 3.8-17.2 5.9-25.9q1.4-5.9 1.8-11.9 0.5-6 0-12-0.5-6.1-1.9-11.9-1.4-5.9-3.7-11.5c-13 1.9-27.2-8.1-39-2.1-8.8 4.5-11.6 15.6-12 25.4-1.5 32.4 11.4 64.4 8.7 96.8-0.6 7.4-2.4 15.3-8 20.2-5.5 4.9-15.9 4.7-19.1-2.1-0.9-2-1.1-4.3-2.1-6.3-2.2-4.6-7.7-6.3-12.5-8.1-13.5-5.1-26.6-15.1-29.5-29.2-5-24.3 21.4-46.2 18.4-70.8-1.3-11-8.5-21.4-6.5-32.3 1-5.5 4.2-10.3 7.4-14.8 2.9-4.3 5.9-8.6 10-11.6 7.7-5.7 18.7-6.6 24.8-14 3.2-3.8 4.5-8.9 7.7-12.8 5.7-7 16-8.4 25-6.9 17 3 31.5 16 41.3 29.9q0.5 0.7 1 1.4 0.4 0.8 0.8 1.5 0.3 0.8 0.7 1.6 0.3 0.8 0.5 1.7 1.8 0.2 3.5 0.5 1.8 0.2 3.5 0.6 1.7 0.3 3.5 0.7 1.7 0.4 3.4 0.8 0.7 0.2 1.4 0.3 0.7 0.2 1.4 0.5 0.6 0.3 1.3 0.6 0.6 0.4 1.2 0.8c1.6 1.4 2.4 3.6 3 5.7 6.1 22.3-4.4 45.6-4.9 68.8z"/>
	<path id="Layer" class="s11" d="m599 118.8c-0.4 20.4 6.9 40.4 5.8 60.8q-0.3 4.5-1.1 9-0.7 4.4-2 8.8-1.3 4.4-3 8.5-1.7 4.2-3.9 8.2c-5.3 9.6-14.6 19.2-25.4 17.3q-0.4 0-0.8-0.1-0.3-0.1-0.6-0.2-0.4-0.2-0.7-0.4-0.3-0.2-0.5-0.4-0.3-0.4-0.5-0.8-0.1-0.4-0.2-0.9-0.1-0.4-0.1-0.9-0.1-0.4 0-0.8c0.7-10.3 6.9-19.2 10.5-28.8q0.3-0.9 0.6-1.9 0.3-0.9 0.5-1.9 0.2-0.9 0.2-1.9 0.1-1 0.1-2-0.2-0.9-0.4-1.9-0.3-0.9-0.6-1.8-0.3-1-0.8-1.8-0.4-0.9-0.9-1.8c-6.3-11.9-13.6-24.3-13.2-37.9 0.2-8.9 3.8-17.2 5.9-25.9q1.4-5.9 1.8-11.9 0.5-6 0-12-0.5-6.1-1.9-11.9-1.4-5.9-3.7-11.5c-13 1.9-27.2-8.1-39-2.1-8.8 4.5-11.6 15.6-12 25.4-1.5 32.4 11.4 64.4 8.7 96.8-0.6 7.4-2.4 15.3-8 20.2-5.5 4.9-15.9 4.7-19.1-2.1-0.9-2-1.1-4.3-2.1-6.3-2.2-4.6-7.7-6.3-12.5-8.1-13.5-5.1-26.6-15.1-29.5-29.2-5-24.3 21.4-46.2 18.4-70.8-1.3-11-8.5-21.4-6.5-32.3 1-5.5 4.2-10.3 7.4-14.8 2.9-4.3 5.9-8.6 10-11.6 7.7-5.7 18.7-6.6 24.8-14 3.2-3.8 4.5-8.9 7.7-12.8 5.7-7 16-8.4 25-6.9 17 3 31.5 16 41.3 29.9q0.5 0.7 1 1.4 0.4 0.8 0.8 1.5 0.3 0.8 0.7 1.6 0.3 0.8 0.5 1.7 1.8 0.2 3.5 0.5 1.8 0.2 3.5 0.6 1.7 0.3 3.5 0.7 1.7 0.4 3.4 0.8 0.7 0.2 1.4 0.3 0.7 0.2 1.4 0.5 0.6 0.3 1.3 0.6 0.6 0.4 1.2 0.8c1.6 1.4 2.4 3.6 3 5.7 6.1 22.3-4.4 45.6-4.9 68.8z"/>
	<path id="Layer" class="s15" d="m581.8 492.7l3.6-25.2 30.4-2.9 5.7 29.4-39.7-1.3z"/>
	<path id="Layer" class="s12" d="m704.7 423c-2.7 3.3-13 9.3-14 11.3-1 2-13.3 8-19.7 9-6.3 1-26.3 5.4-30 7.7-2.6 1.7-23.7 7-37.6 9.9q-1.4 0.4-2.8 0.7-1.4 0.3-2.8 0.5-1.5 0.3-2.9 0.5-1.4 0.2-2.9 0.4c-6 0.3-71.6-22-71.6-22l12.6-13 0.7-0.2c3.6-1.2 20.2-6.8 29.3-9.5 10.4-3 22.4-15.3 22.4-15.3 0 0 17.6-6 20-6.7 2.3-0.7-6-23.3-6-23.3 0 0 38.3-5.3 53.3-9.9 15-4.5 49.7-2.8 56 14.9 6.3 17.6-1.3 41.7-4 45z"/>
	<path id="Layer" class="s14" d="m530 479.3c0 0-7.6 8-15.3 7.4-7.7-0.7-34.5 2-34.5 2q-1.8 0.7-3.6 1.6-1.7 0.8-3.4 1.8-1.7 1-3.3 2.1-1.7 1.1-3.2 2.3c-6.3 4.9-9.6 1-10.2 0.2l-0.1-0.2c-3.4 10.5-11 2.5-11 2.5 0 0 3.3-32 2.3-36-1-4 6.6-10.9 6.6-10.9l9-2.3 22.8-5.8 32.6 11.3z"/>
	<path id="Layer" class="s4" d="m463.2 449.8l-6.7 46.9-0.1-0.2c-3.4 10.5-11 2.5-11 2.5 0 0 3.3-32 2.3-36-1-4 6.6-10.9 6.6-10.9z"/>
	<path id="Layer" class="s4" d="m510.4 316.7c0 0 17.7 6 33 0"/>
	<path id="Layer" class="s4" d="m570.7 328c0 0 7.3 3.7 13 0"/>
	<path id="Layer" class="s4" d="m570.7 336.7c0 0 12.3 1.6 14.7-1.7"/>
	<path id="Layer" class="s4" d="m566.7 355.3c0 0 23.2-3 28.9-7"/>
	<path id="Layer" class="s4" d="m496 348.3c0 0 13 7.4 22.7 7"/>
	<path id="Layer" class="s4" d="m603.4 460.9q-1.4 0.4-2.8 0.7-1.4 0.3-2.8 0.5-1.5 0.3-2.9 0.5-1.4 0.2-2.9 0.4c-6 0.3-71.6-22-71.6-22l12.6-13 0.7-0.2c2 1.4 3.7 2.6 4.8 3.5 5.5 4.3 10.9-1.3 12.9-1.3 2 0 19.3 14.3 19.3 14.3 0 0 16 3.7 18.7 7 2.6 3.3 12 2.7 13.6 5 0.5 0.7 0.6 2.5 0.4 4.7z"/>
	<path id="Layer" class="s12" d="m504.1 412.3q4.5 2.5 8.9 5.1 4.4 2.6 8.7 5.3 4.3 2.8 8.6 5.7 4.2 2.9 8.3 5.9c5.5 4.4 10.8-1.3 12.8-1.3 2 0 19.3 14.3 19.3 14.3 0 0 16 3.7 18.7 7 2.6 3.4 12 2.7 13.6 5 1.7 2.4-1.6 17.4-1.6 17.4 0 0-4.7 16.7-12 19.3-7.4 2.7-38.7-6-45.5-8-6.9-2-28.9-11-28.9-11 0 0-15.6-1.3-33-13.3-17.3-12-29.6-12-36.6-12-7 0-35-10.7-38-15.4q-0.8-1.1-1.8-2.3-0.9-1.1-1.9-2.1-1-1.1-2.1-2-1.1-1-2.2-1.9c0 0-4.7-0.6-14.7-26-10-25.3 11.7-30.9 20.7-37.3 9-6.4 40 2.7 49.3 6.6 9.3 4 25.5 3 25.5 3 0 0 11.2 31.4 23.9 38z"/>
	<path id="Layer" class="s4" d="m447.7 384q2.2-0.4 4.4-0.4 2.2 0.1 4.3 0.6 2.1 0.6 4.1 1.6 1.9 1.1 3.6 2.5c8 6.7 34.9 20.1 34.9 20.1"/>
	<path id="Layer" class="s4" d="m647.7 383.6c0 0-35.7 5.4-42.3 12.7"/>
	<path id="Layer" class="s14" d="m688.7 494h-1.6c-5.6-0.2-24.7-0.8-28.4 0-4.3 1-61.7 0-61.7 0l11.2-2.3c0 0-4.1-14.6-1.5-15.8 0 0-15-9.9-3.7-16.6 11.3-6.6 23.5-3.8 23.5-3.8l28.4-9.7 5.5-1.8c0 0 32 1.7 40.6 23.7 8.7 22-12.3 26.3-12.3 26.3z"/>
	<path id="Layer" class="s4" d="m688.7 494h-1.6c9.3-7.7 30.4-31.1-32.2-48.1l5.5-1.9c0 0 32 1.7 40.6 23.7 8.7 22-12.3 26.3-12.3 26.3z"/>
	<path id="Layer" class="s12" d="m629.9 468.1c-1 0-1.8-0.8-1.8-1.8 0-0.9 0.8-1.7 1.8-1.7 0.9 0 1.7 0.8 1.7 1.7 0 1-0.8 1.8-1.7 1.8z"/>
	<path id="Layer" class="s12" d="m619.7 471c-1 0-1.7-0.8-1.7-1.8 0-0.9 0.7-1.7 1.7-1.7 1 0 1.8 0.8 1.8 1.7 0 1-0.8 1.8-1.8 1.8z"/>
	<g id="Layer" style="opacity: .1">
		<path id="Layer" class="s16" d="m569.6 92.5q-0.4-3.5-1.1-6.9-0.7-3.4-1.7-6.8-1.1-3.3-2.4-6.5c-13 1.9-27.2-8.1-39.1-2.1-8.8 4.4-11.5 15.5-12 25.4-0.1 0.9-0.1 1.8-0.1 2.7q0-3.9 0.1-7.7c0.5-9.9 3.3-21 12-25.4 11.9-6 26.1 4 39.1 2.1q1.6 3.8 2.7 7.7 1.2 4 1.9 8 0.7 4.1 1 8.2 0.3 4.1 0.2 8.2-0.1-3.5-0.6-6.9z"/>
		<path id="Layer" class="s16" d="m469.3 96c-1.3-10.5-7.9-20.4-6.8-30.7 0.9 8.5 5.7 16.9 6.8 25.7q0.1 0.9 0.1 1.7 0.1 0.8 0.1 1.6 0 0.8 0 1.6 0 0.9-0.1 1.7c0-0.5 0-1-0.1-1.6z"/>
		<path id="Layer" class="s16" d="m522.4 180.6q0.1 1.4 0.1 2.9 0 1.5-0.1 3 0 1.4-0.1 2.9-0.1 1.5-0.2 2.9c-0.7 7.4-2.4 15.4-8 20.3-5.6 4.9-16 4.6-19.1-2.1-1-2-1.1-4.3-2.1-6.3-2.3-4.6-7.7-6.4-12.5-8.2-13.5-5.1-26.6-15-29.5-29.2q-0.2-1.1-0.4-2.2-0.1-1.1-0.2-2.2-0.1-1.1-0.1-2.3 0.1-1.1 0.2-2.2 0 0.5 0 1 0.1 0.5 0.2 1 0 0.5 0.1 0.9 0.1 0.5 0.2 1c2.9 14.2 16 24.1 29.5 29.2 4.8 1.8 10.2 3.6 12.5 8.2 0.9 2 1.1 4.3 2.1 6.3 3.1 6.7 13.5 7 19.1 2.1 5.6-4.9 7.4-12.9 8-20.3 0.2-2.2 0.3-4.4 0.3-6.7z"/>
		<path id="Layer" class="s16" d="m606.1 62.9c0.6 18.2-6.2 36.9-6.8 55.5q0-2.2 0-4.3c0.4-17.1 6.2-34.4 6.8-51.2z"/>
		<path id="Layer" class="s16" d="m577.4 187.8q-0.2-0.8-0.5-1.5-0.3-0.8-0.7-1.5-0.3-0.7-0.7-1.4c-6.4-12-13.7-24.4-13.3-37.9 0-0.6 0.1-1.1 0.1-1.6 0.8 12.2 7.4 23.5 13.2 34.5q0.5 0.8 0.9 1.7 0.4 0.9 0.7 1.8 0.4 0.9 0.6 1.9 0.3 0.9 0.4 1.9 0.1 0.5 0.1 0.9 0 0.5-0.1 0.9 0 0.5-0.1 0.9 0 0.5-0.1 0.9-0.2-0.8-0.5-1.5z"/>
		<path id="Layer" class="s16" d="m605.2 172.8q0.1 3.5-0.1 7-0.3 4.6-1.1 9-0.7 4.5-2 8.9-1.3 4.3-3 8.5-1.8 4.2-4 8.2c-5.3 9.6-14.6 19.1-25.4 17.3q-0.4 0-0.7-0.1-0.4-0.1-0.7-0.3-0.3-0.1-0.6-0.3-0.3-0.2-0.6-0.5-0.2-0.3-0.4-0.8-0.2-0.4-0.3-0.8-0.1-0.4-0.1-0.9 0-0.4 0.1-0.9 0.1-1.2 0.2-2.4 0.1 0.1 0.1 0.3 0.1 0.1 0.1 0.2 0.1 0 0.2 0.1 0 0.1 0.1 0.2 0.3 0.3 0.6 0.5 0.3 0.2 0.6 0.3 0.3 0.2 0.7 0.3 0.3 0.1 0.7 0.1c10.8 1.8 20.1-7.7 25.4-17.3q2.2-4 4-8.2 1.7-4.2 3-8.5 1.3-4.4 2-8.9 0.8-4.4 1.1-9 0-1 0.1-2z"/>
	</g>
	<path id="Layer" class="s17" d="m606.7 475.9c0 0 25.3 10.6 42-12.9"/>
	<path id="Layer" class="s17" d="m611.7 494.4c0 0 20.7-13.4 47-0.4"/>
	<path id="Layer" class="s17" d="m473.3 491.4c0 0 8.7-19.6 31.9-4.7"/>
	<path id="Layer" class="s4" d="m445.2 201.8l17.7-16c0 0 68.6-4.5 71.5 18.9 0 0 24.3-27.7 75.5-21.5l21.6 17.2-59.8 26.3-58.2 20.1-42.8-19.1z"/>
	<path id="Layer" class="s3" d="m445.2 202.8l17.7-16c0 0 68.6-4.5 71.5 18.9 0 0 24.3-27.7 75.5-21.5l21.6 17.2-59.8 26.3-58.2 20.1-42.8-19.1z"/>
	<path id="Layer" class="s4" d="m437.4 204.8l87.1 3 0.1 1.6 3.6 93.3-83-4.2-7.8-93.7z"/>
	<path id="Layer" class="s1" d="m437.4 202.8l87.1 3 0.1 1.6 3.6 93.3-83-4.2-7.8-93.7z"/>
	<path id="Layer" class="s4" d="m635.3 202.8l-1.9 94.9-83.7 12.1v-94.1l85.6-12.9z"/>
	<path id="Layer" class="s1" d="m635.3 200.8l-1.9 94.9-83.7 12.1v-94.1l85.6-12.9z"/>
	<path id="Layer" class="s5" d="m615.1 223.8v15.9l-45.2 5-1-15.8 46.2-5.1z"/>
	<path id="Layer" class="s10" d="m452.1 326c1.6-3.7 10.3-2.7 14.6-3 4.4-0.3 7.4-4 7.4-4 0 0 13-50 30-55.4 17-5.4 4.6 49.7 0 53.7-4.7 4-9.4 20-9.4 20 0 0-4.6 14.7-8 17.6-3.3 2.9-10 4.4-17.6 7.4-7.7 3-14.7-3-14.7-3l-4.7-12.6c-5-7.4 0.7-17 2.4-20.7z"/>
	<path id="Layer" class="s4" d="m549.7 309.8c-13 2.1-21.5-7.1-21.5-7.1l-3.6-93.3q2.6 2.2 5.5 3.7 3 1.6 6.3 2.4 3.3 0.8 6.7 0.9 3.3 0 6.6-0.7z"/>
	<path id="Layer" class="s1" d="m549.7 307.8c-13 2.1-21.5-7.1-21.5-7.1l-3.6-93.3q2.6 2.2 5.5 3.7 3 1.6 6.3 2.4 3.3 0.8 6.7 0.9 3.3 0 6.6-0.7z"/>
	<path id="Layer" class="s4" d="m549.7 307.8c-13 2.1-21.5-7.1-21.5-7.1l-3.6-93.3q2.6 2.2 5.5 3.7 3 1.6 6.3 2.4 3.3 0.8 6.7 0.9 3.3 0 6.6-0.7z"/>
	<path id="Layer" class="s4" d="m551.7 203.1c0 0 34.8-10.6 43.9-9.1"/>
	<path id="Layer" class="s4" d="m512.8 198.5c0 0-33.8-8-39.4-5.7"/>
	<path id="Layer" class="s4" d="m573.7 204.5c0 0 23.3-8.6 31.7-4.5"/>
	<path id="Layer" class="s4" d="m561.9 418.7q1.4-1 2.8-2 1.4-0.9 2.8-1.8 1.5-0.9 2.9-1.7 1.5-0.9 3-1.6c6-2.9 17-10.4 17-10.4"/>
	<path id="Layer" class="s4" d="m447.2 340c0 0 2.8-9.3 7.1-10.3 4.4-1.1 19-13 19-13"/>
	<path id="Layer" class="s10" d="m626.7 344.9l-4.6 12.7c0 0-7 6-14.7 3-7.7-3-14.3-4.5-17.7-7.4-3.3-3-8-17.6-8-17.6 0 0-4.6-16-9.3-20-4.7-4-17-59.1 0-53.7 17 5.3 30 55.3 30 55.3 0 0 3 3.7 7.3 4 4.4 0.4 13-0.6 14.7 3 1.7 3.7 7.3 13.4 2.3 20.7z"/>
	<path id="Layer" class="s4" d="m618.6 321.5c0 0 9.5 6.2 9.5 13.5"/>
	<path id="Layer" class="s10" d="m537.5 143.5c-24.7 0-44.6-19.9-44.6-44.6 0-24.7 19.9-44.7 44.6-44.7 24.7 0 44.7 20 44.7 44.7 0 24.7-20 44.6-44.7 44.6z"/>
	<path id="Layer" class="s11" d="m488.7 66c2.8-5.1 11.7-8.9 16.5-11.6q2.4-1.4 4.7-2.7 2.4-1.3 4.9-2.5 2.4-1.2 4.8-2.4 2.5-1.1 5-2.2c5.3-2.3 10.8-4.3 16.5-4.7 14.3-1 27.2 8.1 37.6 18 3.1 2.9 6.3 6.1 8.1 10 1.9 4 2.3 8.8 0.1 12.6-2.4 4-7.4 6-12.1 6-4.7 0-9.3-1.6-13.8-3-11.7-3.7-24.6-6.5-36.2-2.4-5.1 1.8-9.9 4.9-15.3 5.8-9.8 1.5-27.1-9.4-20.8-20.9z"/>
	<path id="Layer" class="s4" d="m587.4 75.2q0.3-0.5 0.4-1 0.2-0.6 0.3-1.1 0.2-0.6 0.2-1.1 0.1 0.9 0.1 1.8 0 1-0.2 1.9-0.2 1-0.5 1.8-0.3 0.9-0.8 1.8c-2.4 4-7.4 5.9-12.1 6-4.8 0-9.3-1.6-13.8-3-11.8-3.6-24.6-6.4-36.2-2.4-5.1 1.8-9.9 5-15.3 5.8-8.8 1.4-23.6-7.3-22-17.4 1.4 8.8 14.1 15.7 22 14.4 5.4-0.8 10.2-4 15.3-5.8 11.6-4 24.4-1.2 36.2 2.4 4.5 1.4 9 3 13.8 3 4.7 0 9.7-2 12.1-6q0.3-0.5 0.5-1.1z"/>
	<path id="Layer" class="s1" d="m957.5 644.5c-10.7 0.3-23.8 22.1-23.8 22.1-2.8-7.3 4.3-17.2 13-28.9 8.7-11.7 2.7-19.5 2.7-19.5 11.7 13.1 18.7 26 8.1 26.3z"/>
	<path id="Layer" class="s4" d="m957.5 644.6c-10.7 0.3-23.7 22.1-23.8 22q0-0.1 0-0.2-0.1-0.2-0.1-0.3-0.1-0.1-0.1-0.2 0-0.2-0.1-0.3c2.7-4.2 13.9-20.8 23.2-21.1 10-0.3 4.4-11.7-6-23.9q-0.1-0.3-0.2-0.6-0.1-0.3-0.3-0.6-0.1-0.3-0.3-0.6-0.2-0.3-0.4-0.6c11.7 13.1 18.7 26 8.1 26.4z"/>
	<path id="Layer" class="s18" d="m960.4 628.1c0 2.7-0.3 4.9-0.7 4.9-0.3 0-0.7-2.2-0.7-4.9 0-2.7 0.4-1.5 0.8-1.5 0.4 0 0.6-1.2 0.6 1.5z"/>
	<path id="Layer" class="s18" d="m964.2 631.4c-2.4 1.3-4.5 2-4.7 1.7-0.1-0.3 1.7-1.6 4-3 2.4-1.3 1.5-0.3 1.7 0 0.2 0.4 1.4-0.1-1 1.3z"/>
	<path id="Layer" class="s1" d="m918.1 618.2c0 0-6 7.8 2.7 19.5 8.7 11.7 15.8 21.6 12.9 28.9 0 0-13-21.8-23.7-22.1-10.6-0.3-3.6-13.2 8.1-26.3z"/>
	<path id="Layer" class="s4" d="m918.1 618.2q-0.2 0.3-0.4 0.6-0.2 0.3-0.3 0.6-0.2 0.3-0.3 0.6-0.1 0.3-0.2 0.6c-10.4 12.2-16 23.6-6 23.9 9.3 0.3 20.5 16.9 23.2 21.1q-0.1 0.1-0.1 0.3 0 0.1-0.1 0.2 0 0.1-0.1 0.3 0 0.1-0.1 0.2c0 0.1-13-21.7-23.7-22-10.6-0.4-3.6-13.3 8.1-26.4z"/>
	<path id="Layer" class="s18" d="m907.7 626.6c0.3 0 0.7-1.2 0.7 1.5 0 2.7-0.3 4.9-0.7 4.9-0.3 0-0.6-2.2-0.6-4.9 0-2.7 0.2-1.5 0.6-1.5z"/>
	<path id="Layer" class="s18" d="m902.3 630.1c0.2-0.4-0.8-1.3 1.6 0 2.4 1.4 4.2 2.7 4 3-0.1 0.3-2.2-0.5-4.6-1.8-2.4-1.3-1.2-0.8-1-1.2z"/>
	<path id="Layer" class="s8" d="m933.8 725.9c-34.3 0-62-4.3-62-9.5 0-5.3 27.7-9.5 62-9.5 34.2 0 62 4.2 62 9.5 0 5.2-27.8 9.5-62 9.5z"/>
	<path id="Layer" class="s19" d="m965.7 656.1l-0.3 2.4-0.5 3.4-0.1 1.5-0.5 3.4-0.1 1.4-0.4 3.4-4.8 38.9c-0.4 3.5-6.1 6.2-12.9 6.2h-24.7c-6.8 0-12.5-2.7-12.9-6.2l-4.8-38.9-0.4-3.4-0.2-1.4-0.4-3.4-0.2-1.5-0.4-3.4-0.3-2.4c-0.2-2 2.9-3.6 6.7-3.6h50.5c3.8 0 6.9 1.6 6.7 3.6z"/>
	<path id="Layer" class="s20" d="m965.4 658.5l-0.4 3.5h-62.5l-0.4-3.5h63.3z"/>
	<path id="Layer" class="s20" d="m964.8 663.4l-0.4 3.4h-61.3l-0.4-3.4h62.1z"/>
	<path id="Layer" class="s20" d="m964.2 668.2l-0.4 3.4h-60.1l-0.4-3.4h60.9z"/>
</svg>